<svg width="1816" height="340" viewBox="0 0 1816 340" fill="none" xmlns="http://www.w3.org/2000/svg">
<g clip-path="url(#clip0_1_33)">
<path d="M696.61 181.74H594.86C594.23 192.02 604.1 204.82 616.62 210.36C633.73 217.94 649.68 213.57 666.35 196.5L685.76 210.77C676.05 223.55 663.76 231.97 648.53 235.41C606.22 244.97 565.87 216.97 567.22 167.12C568 138.49 584.1 115.06 608.99 106.12C641.99 94.3001 690.66 107.78 696.51 161.12C697.25 167.8 696.61 174.63 696.61 181.74ZM670.32 158.17C668.46 139.9 651.15 125.75 631.32 126.09C613.32 126.39 595.25 142.01 594.32 158.17H670.32Z" fill="#13120D"/>
<path d="M1216.79 181.78H1114.3C1116.94 196.3 1125.04 205.78 1138.02 210.78C1157.41 218.17 1173.27 212.06 1186.36 196.47L1206 210.85C1191.21 229.3 1172.43 238.05 1149.09 237.19C1133.55 236.659 1118.74 230.462 1107.46 219.767C1096.18 209.072 1089.19 194.618 1087.83 179.13C1086.02 159.36 1089.45 140.99 1102.39 125.27C1116.46 108.17 1134.91 101.06 1156.71 102.5C1177.52 103.88 1194.6 112.41 1206.18 130.23C1216.26 145.82 1218.38 163.2 1216.79 181.78ZM1114.37 158.1H1190.43C1188.52 139.57 1170.51 125.3 1150.37 126.1C1132.76 126.86 1114.76 142.8 1114.37 158.1Z" fill="#13120D"/>
<path d="M1495.84 154.03C1496.84 136.78 1488.44 125.81 1473.01 124.03C1455.74 122.03 1446.01 129.2 1443.24 146.28H1419.05C1418.54 137.206 1421.08 128.221 1426.27 120.76C1432.93 111.13 1442.41 105.69 1453.61 103.18C1463.83 100.884 1474.43 100.973 1484.61 103.44C1504.37 108.16 1517.15 122.24 1519.94 142.34C1520.51 146.175 1520.81 150.044 1520.86 153.92C1520.94 179.74 1520.86 205.57 1520.86 231.4C1520.86 232.46 1520.75 233.51 1520.68 234.81H1499.8C1499 230.25 1498.18 225.6 1497.26 220.39C1490.54 227.24 1483.26 232.39 1474.58 235.11C1463.85 238.685 1452.31 239.084 1441.35 236.26C1426.77 232.41 1417 223.34 1414.15 208.32C1411.15 192.32 1415.43 178.57 1429.25 168.84C1440.97 160.58 1454.5 157.46 1468.46 156C1477.46 155.04 1486.53 154.67 1495.84 154.03ZM1495.73 174.41C1491.73 174.41 1488.05 174.22 1484.35 174.41C1472.15 175.13 1460.05 176.51 1449.35 183.13C1441.28 188.13 1437.96 195.49 1439.86 203.43C1441.54 210.43 1447.46 214.82 1456.72 215.91C1457.38 215.98 1458.06 215.99 1458.72 216C1481.16 216.54 1497.91 197.97 1495.73 174.41Z" fill="#13120D"/>
<path d="M1571.24 128.05V234.49H1546.7V104.91H1652.1V234.41H1627.57V128.05H1571.24Z" fill="#13120D"/>
<path d="M1369 128.18H1331.14C1330.6 137.57 1330.48 146.79 1329.46 155.92C1327.65 171.92 1326.29 188.16 1322.9 203.92C1318.37 224.92 1304.12 235.48 1282.66 236.14C1281.36 236.14 1280.05 236.14 1278.37 236.14V213.38C1279.66 213.25 1281.09 213.15 1282.5 212.97C1290.01 212.03 1296.06 208.53 1298.14 201.1C1300.62 192.27 1302.91 183.22 1303.65 174.1C1305.42 152.26 1306.24 130.34 1307.45 108.46C1307.51 107.29 1307.62 106.12 1307.72 104.84H1393.72V234.76H1369V128.18Z" fill="#13120D"/>
<path d="M976.51 104.66C978.16 104.66 1012.62 104.66 1028.41 104.66C1054.77 104.66 1075.41 123.66 1077.89 150.27C1080.12 174.02 1062.53 197.02 1037.89 201.27C1029.02 202.81 1004.59 202.36 1001.14 202.36V234.54H976.51V104.66ZM1001.37 178.59C1011.19 178.59 1020.82 179.17 1030.37 178.45C1042.37 177.54 1051.7 166.81 1052.31 154.61C1052.9 142.67 1044.74 130.61 1033.07 129.05C1022.75 127.7 1012.12 128.77 1001.4 128.77L1001.37 178.59Z" fill="#13120D"/>
<path d="M813.63 234.78V104.97H838.16V146.97C840.39 146.97 864.79 146.26 874.98 147.97C891.73 150.71 902.75 161.49 907.61 177.59C912.47 193.69 909.19 208.59 897.77 221.25C889.33 230.59 878.63 234.97 865.98 234.87C850.06 234.68 815.3 234.78 813.63 234.78ZM838.54 211.35C840.12 211.35 858.3 211.75 865.99 211.05C876.23 210.12 883.74 201.41 884.09 191.25C884.42 181.48 877.58 171.84 867.9 170.81C858.22 169.78 848.49 170.59 838.54 170.59V211.35Z" fill="#13120D"/>
<path d="M1682.08 234.78V104.97H1706.7V146.97C1716.01 146.97 1724.8 146.88 1733.59 146.97C1737.33 146.936 1741.06 147.271 1744.73 147.97C1766.01 152.57 1780.08 173.06 1777.82 195.87C1775.64 217.74 1757.27 234.68 1735.51 234.76C1717.86 234.83 1700.2 234.78 1682.08 234.78ZM1707 210.97C1716.63 210.97 1726.16 211.79 1735.49 210.75C1746.15 209.56 1753.43 199.3 1752.49 188.96C1751.49 178.14 1742.85 170.33 1731.69 170.25C1726.48 170.25 1710.04 170.25 1706.99 170.25L1707 210.97Z" fill="#13120D"/>
<path d="M547.66 234.63H523.22V182.85C514.931 187.489 505.702 190.197 496.22 190.77C481.93 191.56 468.85 188.77 458.11 178.41C450.11 170.72 446.32 161.18 446.04 150.41C445.66 135.83 446.13 105.64 446.26 104.92H470.71C470.71 109.3 470.45 138.43 471.35 148.66C472.35 159.8 478.71 165.78 489.72 166.97C500.316 168.126 511.001 165.802 520.16 160.35C522.42 159.05 523.16 157.35 523.16 154.82C523.04 139.69 523.1 106.57 523.1 104.91H547.65L547.66 234.63Z" fill="#13120D"/>
<path d="M734.44 128.02H695.61V104.87H798.68V127.87H760V234.48H734.44V128.02Z" fill="#13120D"/>
<path d="M922.51 104.88H947.29V234.59H922.51V104.88Z" fill="#13120D"/>
<path d="M1815.8 234.58H1790.94V104.97H1815.8V234.58Z" fill="#13120D"/>
<path d="M341.36 0H170.68V339.6H341.36V0Z" fill="#F4BDC7"/>
<path d="M170.68 0H0V339.6H170.68V0Z" fill="#FF6927"/>
<path d="M241.22 165.58C235.11 162.42 234.07 156.4 240.42 153C243.85 151.78 253.42 150 262.96 148.08C282.62 144.16 288.85 129.25 288.44 110.33C288.39 108.09 284.82 106.14 282.57 106.33C258.9 107.05 242.1 113.26 235.5 90.2201C231.23 77.2201 224.39 70.77 220.78 71.32C216.01 71.32 218.84 85.09 217.51 90.32C216.89 90.32 210.09 70.39 203.51 71.32C198.38 72.32 200.51 79.59 199.94 99.64C199.66 109.38 198.78 138.18 179.48 144.98C166.48 149.73 144.32 147.59 126.26 144.86C116.53 142.98 101.26 132.34 93.7 116.66C92.45 114.08 90.08 114.39 89.3 117.15C86.23 128.01 89.97 144.5 99.3 155.8C86.47 165.53 56.05 189.35 46.3 214.51C45.1 218.42 57 226.97 60.45 224.65C76.21 211.16 100.55 190.38 109.79 190.43C111.18 192.29 82.38 205.94 63.32 242.89C62.18 246.89 76.05 257.47 79.45 255.04C95.58 239.24 103.94 229.26 126.61 218.58C142.61 211.58 170.9 207.36 196.99 213.72C219.39 219.18 235.31 228.34 260.04 246.54C268.83 253.34 276.35 240.94 274.15 234.87C262.78 210.8 222.43 192.38 223.87 188.67C224.99 185.82 251.12 199.74 273.6 213.35C279.6 215.66 289.3 204.84 286.37 199.98C272.93 182.23 255.64 173.6 241.22 165.58Z" fill="#13120D"/>
</g>
<defs>
<clipPath id="clip0_1_33">
<rect width="1815.8" height="339.6" fill="white"/>
</clipPath>
</defs>
</svg>
