<?xml version="1.0" encoding="UTF-8"?>
<svg width="108px" height="95px" viewBox="0 0 108 95" version="1.1" xmlns="http://www.w3.org/2000/svg" xmlns:xlink="http://www.w3.org/1999/xlink">
    <!-- Generator: Sketch 40 (33762) - http://www.bohemiancoding.com/sketch -->
    <title>Fill 1</title>
    <desc>Created with Sketch.</desc>
    <defs>
        <linearGradient x1="100%" y1="100%" x2="0%" y2="0%" id="linearGradient-1">
            <stop stop-color="#18CD36" offset="0%"></stop>
            <stop stop-color="#0052CB" offset="100%"></stop>
        </linearGradient>
    </defs>
    <g id="Page-1" stroke="none" stroke-width="1" fill="none" fill-rule="evenodd">
        <path d="M18.9299696,14.6238378 C19.6924598,14.6982005 20.8501632,14.7766945 22.4145827,14.7766945 C25.4579704,14.7766945 26.8334107,13.9388747 26.8334107,12.0145333 C26.8334107,10.4330866 25.5064477,9.49776912 22.9535844,9.49776912 C21.2388031,9.49776912 20.0063297,9.64236326 18.9299696,9.74316602 L18.9299696,14.6238378 L18.9299696,14.6238378 Z M5.6291168,6.38858206 L8.57472821,1.40462875 C10.8819184,3.32897014 12.893315,4.16513738 16.6729,4.16513738 C18.9800902,4.16513738 21.9733573,3.97014185 23.7390808,3.97014185 C29.6286603,3.97014185 33.0656178,6.78105186 33.0656178,11.8178853 C33.0656178,15.1732955 31.2505953,17.792515 27.836644,18.9567044 C28.2170675,19.9027632 28.7766104,20.875262 29.5810047,21.7857919 C29.8759767,22.1195978 30.170127,22.4195274 30.4650989,22.6938431 L31.5151663,20.8603895 L40.6395776,4.82779165 L44.2277185,8.29391965 L48.9809575,0 L51.0646592,2.01357663 L44.8521717,12.829218 L42.3970847,17.2802387 L43.2442047,11.2659488 L41.2886803,9.36474251 L33.9480687,22.2658445 L19.3103931,47.8028214 L17.2242265,45.7925498 L27.3222918,28.1760265 C26.5170758,27.5951712 25.7430826,26.8895518 25.0151016,26.031902 C23.3849501,24.0621168 22.3981498,21.7147343 21.8731161,19.5887873 C20.6841901,19.5507797 19.6538423,19.483027 18.9299696,19.4218844 L18.9299696,29.3377371 L12.3050143,29.3377371 L12.3050143,9.66715082 C10.5918763,9.43084269 9.38323075,9.03837289 8.57472821,8.65747062 C7.1992879,8.01382016 6.02268664,6.92895101 5.6291168,6.38858206 L5.6291168,6.38858206 Z M92.4642621,46.9732642 C98.1180283,46.8394114 101.649475,44.1086478 101.649475,39.3651339 C101.649475,34.5513885 97.5445174,32.8807066 95.1510541,32.8807066 C94.3351567,32.8807066 93.3836872,32.957548 92.4642621,33.0319107 L92.4642621,46.9732642 L92.4642621,46.9732642 Z M85.8697078,52.4314863 L85.8697078,52.4033937 C85.8508099,52.4017412 85.8310903,52.4017412 85.8121924,52.4017412 C86.3495508,53.256086 87.0750668,54.389704 88.0092816,55.6224723 C90.2195172,58.5432739 94.0870187,62.9637232 99.9503055,67.4461414 L98.2536004,69.6927212 C94.8569038,67.0925055 89.9220803,62.8257391 85.7127728,57.2444054 C83.1673045,53.8650339 82.091766,51.6044078 82.047397,51.5118676 L80.9619987,49.2049714 L83.4787094,49.5057272 C83.4943207,49.5073797 84.5271334,49.6255338 86.1959024,49.6379276 C82.2684205,46.4469416 79.3334906,43.3013994 77.4305516,41.0407734 C74.8374276,37.9497639 73.5597635,35.8031606 73.5088213,35.7147516 L71.8959245,32.9831618 L74.9894327,33.609461 C74.9960059,33.609461 75.3714994,33.6829975 75.9893794,33.7251363 C70.0792587,27.3382068 67.670184,22.4368787 67.5609047,22.2080068 L70.080902,20.9727598 C70.0874752,20.983501 70.8113479,22.4567087 72.4061685,24.7892187 C73.879385,26.939127 76.4182802,30.2813171 80.1493879,33.9870583 L82.124632,35.948581 L79.3860761,36.3848422 C78.709859,36.492255 78.0681512,36.5500926 77.4847805,36.5666177 C78.0467883,37.3333797 78.7583363,38.2505197 79.6210677,39.2783774 C81.0762079,41.0044183 83.1689478,43.2724806 85.8697078,45.668612 L85.8697078,32.8980579 C84.2395563,32.662576 83.0062613,32.2981988 82.1566763,31.8974664 C80.7894525,31.2587735 79.6161378,30.1780356 79.2250329,29.6384929 L82.1566763,24.6768484 C84.453185,26.5937535 86.4555435,27.4257895 90.2178739,27.4257895 L94.907846,27.4257895 C101.991281,27.4257895 108,31.1125269 108,39.1693121 C108,47.077372 102.333087,52.4314863 93.0500978,52.4314863 L85.8697078,52.4314863 L85.8697078,52.4314863 Z M20.7564952,60.575028 C20.7564952,59.2728546 19.8954071,58.406116 18.6004884,58.406116 C17.5290582,58.406116 16.7813577,58.4970037 16.1856622,58.5490576 L16.1856622,62.6051297 C16.5710156,62.6728824 17.185609,62.7431138 18.0828496,62.7431138 C19.9792153,62.7431138 20.7564952,61.7020361 20.7564952,60.575028 L20.7564952,60.575028 Z M23.6897819,70.8065091 C22.5682311,70.5462397 21.5329534,69.9405968 20.3259512,68.7276586 C19.3210745,67.7171521 18.52654,66.2893883 18.123932,64.8170069 C17.2513409,64.7971768 16.59813,64.7244666 16.1856622,64.6591927 L16.1856622,70.4594832 L13.5120166,70.4594832 L13.5120166,58.6217678 C12.8842768,58.6308566 12.4430514,58.5978065 11.8736487,58.406116 C11.1818203,58.1458466 10.7520979,57.7112379 10.4924568,57.3650382 L11.7002807,55.4563956 C12.5638338,56.063691 12.9943778,56.4131957 15.1503846,56.4131957 C16.2702921,56.4131957 17.7394003,56.2380302 18.6875832,56.2380302 C21.274134,56.2380302 23.343046,57.6253077 23.343046,60.4882716 C23.343046,62.2316637 22.2264251,63.7065239 20.6389994,64.3972708 C20.9586208,65.1541178 21.4844762,66.0307714 22.2231385,66.9049462 C23.0842266,67.8592675 23.9477796,68.2913974 24.8967842,68.6409021 L23.6897819,70.8065091 L23.6897819,70.8065091 Z M50.8551387,64.7376867 C49.8206827,64.0428086 48.8716782,63.6966089 48.8716782,63.0033833 C48.8716782,62.5687746 49.2167708,62.3068527 49.7344096,62.3068527 C50.8551387,62.3068527 52.0629627,63.4355132 52.0629627,63.4355132 L53.1836918,61.4409404 C53.1836918,61.4409404 51.7170485,60.3139324 49.8206827,60.3139324 C47.4066782,60.3139324 46.6293983,61.9614793 46.6293983,63.0033833 C46.6293983,64.6509302 47.6638543,65.4317385 48.8716782,66.2108944 C50.0786805,66.9908764 50.8551387,67.3403811 50.8551387,68.031128 C50.8551387,68.3814589 50.5100462,68.6409021 49.9069559,68.6409021 C49.2167708,68.6409021 48.0081252,68.1187107 47.0599423,67.3403811 L46.1117595,69.4200579 C46.1117595,69.4200579 47.4921297,70.8065091 49.8206827,70.8065091 C51.9766895,70.8065091 53.4425112,69.4200579 53.4425112,67.8592675 C53.4425112,66.2108944 52.0629627,65.603599 50.8551387,64.7376867 L50.8551387,64.7376867 Z M25.9304185,60.6609583 L25.9304185,67.2511459 C25.9304185,69.1589622 26.7939715,70.8065091 29.1217029,70.8065091 C30.8471657,70.8065091 31.7090754,69.7679101 32.2283575,69.1589622 L32.2661534,69.1589622 C32.4962151,69.9728207 33.008924,70.4867495 33.5208113,70.8065091 L35.590545,69.5952234 C35.0737278,68.8119363 34.6415404,67.772511 34.6415404,65.8646947 L34.6415404,60.6609583 L32.1404411,60.6609583 L32.1404411,67.0685441 C31.6877125,67.8683563 30.8742801,68.5524931 29.9844343,68.5524931 C28.8637052,68.5524931 28.4331611,68.031128 28.4331611,66.2984771 L28.4331611,60.6609583 L25.9304185,60.6609583 L25.9304185,60.6609583 Z M44.5613079,67.8592675 C44.5613079,66.2108944 43.1784728,65.603599 41.9714705,64.7376867 C40.9378362,64.0428086 39.9896533,63.6966089 39.9896533,63.0033833 C39.9896533,62.5687746 40.3331026,62.3068527 40.8507414,62.3068527 C41.9714705,62.3068527 43.1784728,63.4355132 43.1784728,63.4355132 L44.3024885,61.4409404 C44.3024885,61.4409404 42.8350235,60.3139324 40.9378362,60.3139324 C38.52301,60.3139324 37.7449084,61.9614793 37.7449084,63.0033833 C37.7449084,64.6509302 38.7818294,65.4317385 39.9896533,66.2108944 C41.1966556,66.9908764 41.9714705,67.3403811 41.9714705,68.031128 C41.9714705,68.3814589 41.6271996,68.6409021 41.022466,68.6409021 C40.3331026,68.6409021 39.1261003,68.1187107 38.1770958,67.3403811 L37.2272696,69.4200579 C37.2272696,69.4200579 38.6092831,70.8065091 40.9378362,70.8065091 C43.093843,70.8065091 44.5613079,69.4200579 44.5613079,67.8592675 L44.5613079,67.8592675 Z M55.7718859,70.4594832 L58.3576151,70.4594832 L58.3576151,60.6593058 L55.7718859,60.6593058 L55.7718859,70.4594832 Z M66.7236445,66.157188 C66.3892334,66.1910643 65.8978873,66.2579907 65.2570011,66.3835811 C64.136272,66.6438505 63.5315384,66.9908764 63.5315384,67.8592675 C63.5315384,68.3798064 63.8774526,68.8119363 64.5676377,68.8119363 C65.5716927,68.8119363 66.4525003,68.034433 66.7236445,67.772511 L66.7236445,66.157188 L66.7236445,66.157188 Z M63.7049063,70.8065091 C62.0681816,70.8065091 60.9449876,69.5935709 60.9449876,68.1187107 C60.9449876,65.246658 64.4698615,64.4319734 66.7236445,64.3923132 L66.7236445,64.0428086 C66.7236445,62.7431138 66.6365497,62.0482357 64.9981817,62.0482357 L62.4970824,63.8701219 L61.2892585,61.7879663 C62.1519898,61.0088105 63.8774526,60.3139324 65.6029153,60.3139324 C67.6718273,60.3139324 69.1384707,61.3550101 69.1384707,63.6966089 L69.1384707,66.3835811 C69.1384707,68.031128 69.3110169,68.6409021 70.001202,69.6811536 L68.103193,70.8065091 C67.4828481,70.4421319 67.1106411,69.9521643 66.9109804,69.2985989 C66.3218581,69.9381181 65.2956186,70.8065091 63.7049063,70.8065091 L63.7049063,70.8065091 Z M58.3576151,56.3231342 L55.7718859,54.4136653 L55.7718859,57.2782817 L58.3576151,59.1869243 L58.3576151,56.3231342 L58.3576151,56.3231342 Z M17.5076954,77.5677309 L20.0967111,75.6590883 L20.0967111,72.7977769 L17.5076954,74.7055933 L17.5076954,77.5677309 L17.5076954,77.5677309 Z M27.3403681,83.1184933 C26.3042688,82.4252677 25.3560859,82.0765892 25.3560859,81.3833636 C25.3560859,80.9512337 25.7020001,80.6909643 26.2196389,80.6909643 C27.3403681,80.6909643 28.5490136,81.817146 28.5490136,81.817146 L29.6680995,79.821747 C29.6680995,79.821747 28.2022778,78.6930864 26.3042688,78.6930864 C23.8902642,78.6930864 23.1154493,80.3414596 23.1154493,81.3833636 C23.1154493,83.0300843 24.148262,83.8125451 25.3560859,84.5925272 C26.5639098,85.3725093 27.3403681,85.7203615 27.3403681,86.4135871 C27.3403681,86.7622655 26.9952755,87.0217087 26.3921852,87.0217087 C25.7020001,87.0217087 24.4941762,86.5003435 23.5451717,85.7203615 L22.2510746,87.8016908 C22.2510746,87.8016908 23.9765374,89.1889682 26.3042688,89.1889682 C28.4602756,89.1889682 29.9277405,87.8016908 29.9277405,86.2392478 C29.9277405,84.5925272 28.5490136,83.9852318 27.3403681,83.1184933 L27.3403681,83.1184933 Z M88.4809081,85.3345017 L85.983917,78.6930864 L83.4852826,79.7358167 L87.2098172,88.4263374 L84.345549,93.7854093 L86.8466484,95 L89.5211156,88.841116 L93.4880366,79.9085034 L91.0740321,78.6930864 L88.4809081,85.3345017 L88.4809081,85.3345017 Z M12.3337721,81.6436331 C12.3337721,78.4336433 10.1769436,76.9612618 6.98730248,76.9612618 L5.77947856,76.9612618 L5.77947856,86.5862738 L6.72683977,86.5862738 C10.609131,86.5862738 12.3337721,84.6776312 12.3337721,81.6436331 L12.3337721,81.6436331 Z M15.006596,81.7303896 C15.006596,85.9806309 11.9024064,88.841116 6.72683977,88.841116 L0.258819412,88.841116 L0.258819412,86.5862738 L3.1050113,86.5862738 L3.1050113,76.860459 C0.853693236,76.5448307 0,75.5731581 0,75.5731581 L1.29491871,73.666168 C2.67364561,74.6180106 4.31201357,74.6180106 7.15902711,74.6180106 C11.3847675,74.6180106 15.006596,76.6142359 15.006596,81.7303896 L15.006596,81.7303896 Z M77.8775287,80.9140524 L77.8775287,79.0425911 L75.2901562,79.0425911 L75.2901562,88.841116 L77.8775287,88.841116 L77.8775287,82.9813354 C79.1190402,82.5062404 81.0195142,82.0394079 82.276637,81.6436331 L81.846093,78.7831479 C80.4731176,78.9203058 78.9892197,79.7192917 77.8775287,80.9140524 L77.8775287,80.9140524 Z M70.3742307,82.5987806 C70.3742307,81.4701201 70.0299598,80.601729 68.908409,80.601729 C67.5756944,80.601729 66.7556888,81.5800117 66.4968694,82.7392435 L70.3742307,82.5987806 L70.3742307,82.5987806 Z M72.3585128,84.418188 C70.9066592,84.418188 67.9750158,84.5594771 66.5083725,84.6330136 C66.7441857,85.8211642 67.4179378,86.7622655 68.8221358,86.7622655 C70.202506,86.7622655 70.9797859,86.0657349 71.4974247,85.6319525 L72.6181539,87.7149343 C72.0134203,88.2338207 70.6338717,89.1889682 68.6504112,89.1889682 C65.372032,89.1889682 63.9070319,86.6738565 63.9070319,83.9852318 C63.9070319,80.9512337 66.235585,78.6930864 68.9946821,78.6930864 C71.5828762,78.6930864 72.7898785,80.2563556 72.7898785,82.164172 C72.7898785,83.1168408 72.6181539,83.8125451 72.3585128,84.418188 L72.3585128,84.418188 Z M57.697831,85.8071179 L55.2830048,78.6930864 L52.696454,79.7358167 L56.3182824,88.841116 L58.8193818,88.841116 L62.8709326,79.9085034 L60.3698333,78.6930864 L57.697831,85.8071179 L57.697831,85.8071179 Z M49.0721606,83.5514494 C49.0721606,81.817146 48.296524,80.7760683 47.0032486,80.7760683 C45.3657022,80.7760683 44.2449731,82.3385112 44.2449731,84.2455013 C44.2449731,85.8930482 45.1060612,87.0217087 46.3138851,87.0217087 C47.7805284,87.0217087 49.0721606,85.460092 49.0721606,83.5514494 L49.0721606,83.5514494 Z M51.4878084,83.6390322 C51.4878084,86.5862738 49.2455285,89.1889682 46.3138851,89.1889682 C43.7265126,89.1889682 41.8301469,87.2811519 41.8301469,84.0728146 C41.8301469,81.037164 44.2449731,78.6930864 46.9161538,78.6930864 C49.9373569,78.6930864 51.4878084,80.7760683 51.4878084,83.6390322 L51.4878084,83.6390322 Z M36.7400318,80.5166251 C37.0851244,80.5166251 37.8632259,81.4701201 38.8114087,82.5987806 L40.5352282,80.1679466 C39.5862237,79.3020343 38.7251356,78.6930864 36.9996729,78.6930864 C34.2397541,78.6930864 31.7386548,81.037164 31.7386548,84.0719883 C31.7386548,86.7622655 33.2044765,89.1889682 36.4812124,89.1889682 C38.4654945,89.1889682 39.8450431,88.2338207 40.4497767,87.7149343 L39.3282259,85.6319525 C38.8114087,86.0657349 38.0349505,86.7622655 36.6562236,86.7622655 C35.187937,86.7622655 34.2397541,85.460092 34.2397541,83.7249624 C34.2397541,82.5987806 34.9291176,80.5166251 36.7400318,80.5166251 L36.7400318,80.5166251 Z M17.5076954,88.841116 L20.0967111,88.841116 L20.0967111,79.0425911 L17.5076954,79.0425911 L17.5076954,88.841116 Z" id="Fill-1" fill="url(#linearGradient-1)"></path>
    </g>
</svg>